<?xml version="1.0" standalone="no"?>
<!DOCTYPE svg PUBLIC "-//W3C//DTD SVG 20010904//EN"
 "http://www.w3.org/TR/2001/REC-SVG-20010904/DTD/svg10.dtd">
<svg version="1.0" xmlns="http://www.w3.org/2000/svg"
 width="1024.000000pt" height="1024.000000pt" viewBox="0 0 1024.000000 1024.000000"
 preserveAspectRatio="xMidYMid meet">

<g transform="translate(0.000000,1024.000000) scale(0.100000,-0.100000)"
fill="#000000" stroke="none">
<path d="M4982 7769 c-95 -47 -148 -125 -159 -234 -11 -101 54 -227 138 -271
l29 -15 0 -139 0 -140 125 0 125 0 0 138 1 137 44 27 c25 15 58 48 75 74 77
122 56 282 -51 378 -92 83 -217 100 -327 45z m179 -99 c36 -20 18 -50 -30 -50
-9 0 -25 6 -35 13 -17 13 -17 14 -1 30 19 20 38 21 66 7z"/>
<path d="M6386 6872 c5 -4 23 -18 39 -32 l30 -25 -29 33 c-17 17 -34 32 -40
32 -6 0 -6 -3 0 -8z"/>
<path d="M3779 6833 c-13 -16 -12 -17 4 -4 9 7 17 15 17 17 0 8 -8 3 -21 -13z"/>
<path d="M6460 6806 c0 -2 8 -10 18 -17 15 -13 16 -12 3 4 -13 16 -21 21 -21
13z"/>
<path d="M3690 6720 c-6 -11 -8 -20 -6 -20 3 0 10 9 16 20 6 11 8 20 6 20 -3
0 -10 -9 -16 -20z"/>
<path d="M3702 6700 c-7 -12 -17 -18 -23 -14 -7 4 -9 -1 -5 -14 4 -12 1 -40
-5 -63 -10 -33 -14 -38 -20 -23 -5 12 -8 -1 -9 -36 -1 -30 -3 -64 -4 -75 -1
-11 -3 -41 -4 -66 -2 -44 -3 -45 -32 -41 -45 6 -125 -17 -170 -49 -22 -16 -52
-52 -67 -81 l-28 -53 0 -290 c0 -284 1 -291 23 -337 44 -88 125 -138 226 -138
41 0 46 -3 47 -22 4 -123 11 -220 20 -253 30 -113 139 -249 241 -301 80 -41
103 -46 231 -53 l118 -6 -25 -48 c-93 -174 -267 -311 -453 -357 -43 -11 -145
-24 -228 -30 -180 -12 -251 -28 -362 -80 -270 -126 -459 -373 -489 -638 -7
-68 -13 -63 90 -81 82 -15 156 -14 160 2 2 6 11 44 20 82 10 39 32 97 49 130
40 74 164 201 234 238 71 38 192 67 277 67 188 0 346 35 501 110 111 53 189
109 314 225 76 70 170 140 178 131 5 -5 -35 -162 -64 -251 -60 -185 -126 -276
-317 -435 -201 -168 -265 -240 -334 -375 -54 -109 -74 -189 -79 -327 l-6 -128
-53 -24 c-76 -35 -145 -104 -185 -184 -58 -118 -51 -281 17 -398 35 -60 125
-141 191 -172 52 -24 70 -27 163 -27 118 0 163 15 252 83 142 107 196 318 128
497 -29 75 -131 182 -202 211 -46 18 -48 21 -48 59 1 74 28 195 59 262 51 107
97 159 245 278 269 214 347 323 434 600 42 133 83 212 124 239 13 8 47 24 76
35 l52 21 0 -263 c0 -398 10 -1198 16 -1234 4 -28 10 -33 40 -39 48 -9 202 0
214 12 7 7 11 282 13 765 l2 754 25 -3 c49 -7 120 -45 155 -83 40 -45 54 -75
102 -224 84 -259 188 -403 418 -577 214 -161 296 -299 307 -515 l4 -71 -53
-22 c-285 -118 -314 -543 -49 -721 81 -54 149 -72 250 -67 195 10 355 159 386
358 12 83 0 163 -39 245 -38 83 -88 136 -165 176 l-63 33 -6 120 c-12 281
-126 479 -397 690 -225 176 -313 308 -379 568 -16 62 -31 118 -33 123 -6 19
17 14 67 -14 28 -16 98 -74 157 -128 229 -216 386 -285 689 -303 258 -15 354
-48 479 -167 86 -80 131 -155 167 -273 25 -82 30 -90 56 -96 33 -7 124 2 180
18 44 13 46 28 21 141 -47 206 -171 384 -349 502 -159 105 -276 140 -512 155
-267 16 -397 71 -541 225 -56 60 -132 174 -132 199 0 3 38 6 85 6 160 0 276
43 374 140 98 97 141 216 141 390 l0 105 57 -3 c80 -4 155 34 200 100 47 71
56 144 51 413 -4 204 -6 235 -24 275 -47 103 -119 154 -221 154 l-63 1 -1 55
c-1 30 -1 59 0 63 1 5 -4 5 -10 2 -8 -5 -9 10 -5 51 4 44 3 53 -4 34 -9 -22
-9 -20 -6 12 6 47 -3 85 -15 66 -7 -10 -10 -8 -15 9 -3 12 -13 24 -21 28 -14
5 -14 3 -2 -11 11 -14 11 -18 -2 -28 -8 -6 -13 -19 -11 -28 2 -10 -2 -18 -8
-18 -6 0 -8 4 -5 10 3 5 2 17 -3 26 -8 15 -10 15 -15 -1 -4 -9 -12 -13 -19 -9
-7 4 -10 4 -6 -1 4 -4 3 -14 -3 -22 -6 -7 -8 -13 -4 -13 4 0 2 -7 -5 -15 -14
-17 -30 -20 -30 -6 0 5 8 12 18 14 16 4 -8 8 -65 11 -12 1 -25 4 -29 9 -4 4
-12 7 -18 7 -6 0 -5 -4 2 -9 10 -6 9 -13 -6 -31 -15 -19 -20 -20 -33 -9 -21
20 -43 23 -36 4 4 -8 2 -15 -3 -15 -6 0 -10 5 -10 10 0 6 -7 10 -15 10 -8 0
-15 9 -15 19 0 11 -4 23 -10 26 -5 3 -10 1 -10 -6 0 -8 -5 -8 -17 2 -15 11
-16 11 -5 -1 28 -32 6 -40 -42 -15 -35 19 -41 19 -60 -1 -15 -14 -16 -14 -16
0 0 9 -6 16 -14 16 -10 0 -13 -7 -11 -20 2 -11 0 -18 -5 -15 -5 3 -7 15 -5 26
5 27 -21 36 -44 15 -16 -15 -20 -15 -31 -1 -7 8 -16 13 -20 10 -5 -3 -15 1
-23 9 -8 8 -19 11 -27 6 -9 -6 -7 -10 9 -15 11 -3 21 -11 21 -17 0 -7 -5 -6
-14 1 -9 8 -15 8 -18 2 -1 -6 -8 1 -15 14 -6 14 -7 23 -2 19 16 -10 9 13 -8
27 -9 8 -14 9 -10 3 3 -6 0 -20 -8 -30 -14 -18 -14 -18 -11 2 3 12 -1 21 -9
21 -7 0 -10 -8 -7 -21 4 -17 2 -19 -9 -8 -14 13 -30 16 -28 5 4 -24 -4 -25
-21 -3 -17 21 -21 23 -30 10 -8 -13 -10 -12 -10 3 0 9 -7 17 -15 17 -8 0 -15
5 -15 11 0 5 -11 -3 -25 -18 -13 -15 -25 -22 -25 -15 0 6 4 12 8 12 5 0 9 6 9
14 0 15 -3 14 -64 -18 -31 -16 -37 -15 -34 9 1 6 -5 2 -12 -7 -16 -20 -32 -25
-21 -6 5 8 2 9 -11 4 -18 -6 -18 -6 1 15 l19 22 -28 -18 c-15 -10 -27 -14 -26
-9 4 21 -2 35 -12 28 -6 -3 -9 -17 -6 -30 2 -13 0 -21 -4 -18 -5 3 -9 12 -9
20 0 8 -6 13 -12 12 -7 -2 -13 6 -12 17 0 18 -4 20 -30 16 -25 -4 -27 -6 -9
-9 21 -3 41 -32 22 -32 -6 0 -8 -4 -4 -9 3 -5 0 -13 -6 -17 -8 -5 -10 1 -7 19
4 18 1 24 -9 20 -7 -3 -10 -9 -7 -14 10 -17 -9 -9 -22 8 -7 10 -16 15 -20 11
-4 -4 -1 -14 6 -23 10 -12 10 -15 -4 -15 -9 0 -15 5 -13 11 1 6 -5 13 -13 14
-8 2 -23 6 -32 10 -11 4 -18 3 -18 -5 0 -6 5 -8 12 -4 7 5 8 3 3 -5 -5 -8 -11
-9 -17 -3 -5 5 -24 6 -41 3 -46 -10 -71 -3 -56 15 9 11 8 14 -5 14 -9 0 -16
-8 -16 -17 0 -10 -4 -14 -8 -8 -11 15 -33 17 -49 3 -12 -9 -16 -9 -24 3 -7 11
-9 10 -10 -6 0 -16 -3 -14 -11 8 -5 15 -16 27 -25 27 -12 0 -12 -2 1 -16 22
-21 20 -27 -6 -19 -19 6 -21 5 -10 -6 22 -23 13 -29 -19 -11 -29 17 -31 16
-49 -5 -10 -13 -28 -23 -39 -23 -24 0 -27 -10 -8 -30 10 -12 9 -12 -4 -2 -9 6
-18 10 -20 7 -3 -2 -5 5 -6 16 -1 11 2 17 8 14 5 -4 9 -2 9 2 0 8 -41 37 -43
31 -1 -2 -8 -14 -15 -27 -8 -12 -9 -20 -3 -16 6 3 11 2 11 -4 0 -5 -4 -13 -10
-16 -5 -3 -10 -1 -10 5 0 6 -5 8 -10 5 -6 -4 -8 -11 -5 -16 4 -5 1 -9 -4 -9
-14 0 -14 17 -1 25 12 8 13 45 1 45 -5 0 -12 -12 -16 -27 -5 -21 -8 -24 -15
-13 -5 9 -5 19 2 27 6 7 7 13 3 13 -4 0 -14 -8 -22 -17 -14 -17 -14 -17 -10 3
3 13 -1 21 -9 21 -8 0 -12 -3 -9 -5 3 -3 0 -11 -6 -18 -8 -9 -4 -16 16 -27
l27 -14 -29 0 c-25 0 -29 4 -27 24 1 12 -3 26 -8 30 -7 3 -8 1 -4 -5 4 -7 2
-12 -3 -12 -6 0 -11 4 -11 10 0 6 -9 6 -26 0 -30 -12 -47 -13 -41 -2 3 4 -8 8
-24 9 -16 1 -29 -3 -29 -8 0 -6 7 -9 14 -6 10 4 13 1 9 -8 -4 -12 -10 -11 -30
5 -30 23 -51 27 -34 6 8 -10 9 -16 1 -21 -6 -3 -8 -10 -5 -15 6 -10 -21 -7
-31 3 -4 4 1 7 11 7 13 0 15 3 6 13 -6 8 -8 17 -4 20 3 4 -1 7 -10 7 -10 0
-17 -8 -18 -17 0 -16 -1 -16 -8 1 -5 14 -10 16 -15 8 -4 -7 -11 -10 -15 -8 -4
3 -8 -5 -8 -16 -1 -12 -6 -25 -12 -31 -7 -7 -8 -3 -4 12 3 13 1 21 -7 21 -10
0 -9 4 1 18 7 9 1 6 -13 -7 -15 -12 -31 -20 -37 -16 -6 3 -11 1 -11 -4 0 -6 6
-11 13 -12 6 0 1 -5 -12 -10 -13 -5 -26 -7 -30 -4 -10 11 16 40 36 39 11 0 20
5 20 11 0 6 -11 11 -23 11 -12 0 -20 -4 -18 -8 3 -4 -2 -8 -12 -8 -13 0 -15
-7 -12 -35 5 -41 1 -44 -12 -10 -5 14 -15 25 -22 25 -9 0 -8 -3 2 -10 12 -8
11 -10 -7 -12 -69 -5 -82 -4 -76 6 4 6 0 5 -9 -2 -12 -10 -18 -10 -23 -1 -6 8
-10 7 -16 -2 -7 -11 -9 -11 -9 -1 0 7 -5 10 -12 6 -8 -5 -9 0 -6 14 4 12 2 25
-4 28 -15 10 -18 0 -9 -33 8 -28 7 -30 -11 -25 -14 3 -18 11 -14 25 4 15 2 17
-7 8 -12 -12 -31 -15 -24 -3 3 4 -5 7 -18 7 -18 0 -21 -3 -13 -12 8 -9 7 -13
-3 -13 -11 0 -11 -3 1 -11 13 -9 13 -10 0 -6 -8 2 -14 10 -12 17 2 8 -3 10
-13 7 -8 -4 -15 -2 -15 2 0 5 6 12 13 14 7 3 5 6 -5 6 -19 1 -25 -24 -8 -34 6
-3 10 -12 10 -18 0 -8 -3 -8 -8 -2 -4 6 -20 11 -35 12 -23 2 -27 0 -18 -11 8
-10 2 -9 -22 3 -26 12 -32 21 -29 36 5 19 5 19 -12 3 -23 -23 -29 -23 -17 1 8
14 7 20 -4 25 -12 4 -15 -4 -15 -42 0 -31 -3 -42 -9 -33 -5 7 -14 11 -20 7 -7
-5 -9 -1 -5 8 4 9 1 16 -6 16 -9 0 -10 3 -1 13 6 8 8 17 4 21 -11 10 -11 49
-1 69 12 24 -4 21 -20 -3z m1968 -45 c0 -12 -19 -12 -23 0 -4 9 -1 12 9 8 7
-3 14 -7 14 -8z m-867 -26 c-4 -16 -8 -17 -14 -7 -5 7 -4 14 1 16 6 2 7 9 4
14 -4 6 -2 8 4 5 5 -4 8 -16 5 -28z m109 24 c-10 -4 -10 -8 0 -21 12 -15 11
-16 -4 -3 -19 14 -15 32 5 30 8 0 8 -2 -1 -6z m-347 -41 c-6 -7 -34 11 -29 19
3 5 11 3 19 -4 7 -6 12 -13 10 -15z m31 8 c0 -12 -4 -16 -9 -11 -5 5 -6 14 -3
20 10 15 12 14 12 -9z m454 10 c0 -5 -2 -10 -4 -10 -3 0 -8 5 -11 10 -3 6 -1
10 4 10 6 0 11 -4 11 -10z m-660 -11 c0 -5 5 -7 10 -4 6 3 10 1 10 -4 0 -6 -4
-11 -10 -11 -5 0 -13 -1 -17 -2 -3 -2 -7 5 -9 15 -1 9 2 17 7 17 5 0 9 -5 9
-11z m924 -5 c3 -8 2 -12 -4 -9 -6 3 -10 10 -10 16 0 14 7 11 14 -7z m346 7
c0 -5 -7 -12 -16 -15 -14 -5 -15 -4 -4 9 14 17 20 19 20 6z m-505 -11 c3 -6
-1 -7 -9 -4 -18 7 -21 14 -7 14 6 0 13 -4 16 -10z m811 -18 c-18 -16 -18 -16
-6 6 6 13 14 21 18 18 3 -4 -2 -14 -12 -24z m-1962 -7 c3 -8 -2 -12 -11 -11
-9 2 -17 10 -19 19 -2 18 22 12 30 -8z m716 5 c0 -5 -5 -10 -11 -10 -5 0 -7 5
-4 10 3 6 8 10 11 10 2 0 4 -4 4 -10z m1371 -5 c0 -6 -10 -11 -21 -11 -16 -1
-18 1 -9 13 13 15 31 14 30 -2z m259 -15 c0 -5 -6 -12 -12 -16 -7 -4 -10 -4
-6 1 4 4 3 14 -4 22 -8 11 -7 12 6 7 9 -3 16 -10 16 -14z m40 4 c0 -2 -7 -4
-15 -4 -8 0 -15 4 -15 10 0 5 7 7 15 4 8 -4 15 -8 15 -10z m95 -4 c3 -5 -1
-10 -10 -10 -9 0 -13 5 -10 10 3 6 8 10 10 10 2 0 7 -4 10 -10z m-1920 -264
c28 -13 61 -36 75 -52 l25 -29 -30 26 c-46 41 -94 62 -160 69 l-60 7 50 2 c34
0 66 -7 100 -23z m1257 13 c21 -5 48 -20 61 -32 13 -12 16 -17 7 -10 -27 21
-73 35 -135 43 -57 7 -58 7 -15 9 25 0 62 -4 82 -10z m-1448 -18 c-22 -10 -58
-36 -79 -57 -28 -29 -33 -32 -21 -12 20 31 101 88 125 88 9 0 -2 -9 -25 -19z
m1266 -8 c-14 -9 -39 -28 -56 -42 -16 -14 -10 -7 14 17 24 23 49 42 55 42 6 0
0 -7 -13 -17z m-2020 -32 c0 -24 -3 -28 -20 -24 -27 7 -34 21 -20 38 21 25 40
18 40 -14z m3050 4 c0 -20 -5 -25 -25 -25 -18 0 -25 5 -25 18 0 10 3 22 7 25
3 4 15 7 25 7 13 0 18 -7 18 -25z m-725 -35 c10 -11 16 -20 13 -20 -3 0 -13 9
-23 20 -10 11 -16 20 -13 20 3 0 13 -9 23 -20z m-908 -806 c-3 -3 -12 -4 -19
-1 -8 3 -5 6 6 6 11 1 17 -2 13 -5z m-80 -10 c-3 -3 -12 -4 -19 -1 -8 3 -5 6
6 6 11 1 17 -2 13 -5z m46 -11 c-7 -2 -19 -2 -25 0 -7 3 -2 5 12 5 14 0 19 -2
13 -5z m165 -10 c-26 -2 -71 -2 -100 0 -29 2 -8 3 47 3 55 0 79 -1 53 -3z
m1256 -2569 c7 -17 -9 -44 -26 -44 -15 0 -21 30 -8 45 16 19 26 19 34 -1z
m-2535 -13 c6 -10 7 -21 4 -25 -11 -11 -51 -6 -56 7 -12 36 34 53 52 18z"/>
<path d="M6526 6707 c3 -10 9 -15 12 -12 3 3 0 11 -7 18 -10 9 -11 8 -5 -6z"/>
<path d="M5534 6679 c0 -10 4 -19 8 -19 4 0 8 6 8 14 0 8 -4 17 -8 20 -4 2 -8
-4 -8 -15z"/>
<path d="M5148 6683 c7 -3 16 -2 19 1 4 3 -2 6 -13 5 -11 0 -14 -3 -6 -6z"/>
<path d="M4518 6673 c7 -3 16 -2 19 1 4 3 -2 6 -13 5 -11 0 -14 -3 -6 -6z"/>
<path d="M4840 6669 c0 -5 5 -7 10 -4 6 3 10 8 10 11 0 2 -4 4 -10 4 -5 0 -10
-5 -10 -11z"/>
<path d="M5710 6670 c0 -15 15 -19 30 -9 8 5 13 9 10 10 -3 0 -13 2 -22 4 -10
2 -18 -1 -18 -5z"/>
<path d="M5904 6662 c4 -7 2 -12 -3 -12 -6 0 -11 -4 -11 -10 0 -5 3 -9 8 -9 4
1 9 0 12 -1 19 -7 40 -7 40 1 0 5 -9 9 -21 9 -11 0 -18 4 -14 9 3 5 0 13 -6
17 -8 4 -9 3 -5 -4z"/>
<path d="M6006 6645 c-3 -9 0 -15 9 -15 9 0 12 6 9 15 -4 8 -7 15 -9 15 -2 0
-5 -7 -9 -15z"/>
<path d="M3829 6632 c8 -15 8 -21 -1 -24 -7 -3 -6 -7 5 -11 12 -4 17 -1 17 11
0 15 2 15 10 2 5 -8 10 -10 10 -4 0 7 -12 19 -26 29 -25 16 -25 16 -15 -3z"/>
<path d="M4082 6637 c-11 -12 -8 -15 17 -13 16 0 27 4 25 8 -3 5 0 8 7 8 7 0
9 3 6 6 -4 4 -13 2 -21 -5 -10 -9 -15 -9 -18 0 -2 7 -8 6 -16 -4z"/>
<path d="M6040 6625 c0 -8 2 -15 4 -15 2 0 6 7 10 15 3 8 1 15 -4 15 -6 0 -10
-7 -10 -15z"/>
<path d="M6100 6636 c0 -2 7 -7 16 -10 8 -3 12 -2 9 4 -6 10 -25 14 -25 6z"/>
<path d="M4150 6610 c-8 -5 -10 -10 -5 -10 6 0 17 5 25 10 8 5 11 10 5 10 -5
0 -17 -5 -25 -10z"/>
<path d="M6210 6595 c-14 -16 -3 -20 19 -6 8 5 9 11 3 15 -5 3 -15 -1 -22 -9z"/>
<path d="M6260 6602 c0 -16 28 -34 34 -23 4 6 -3 15 -14 21 -11 6 -20 7 -20 2z"/>
<path d="M7033 3165 c0 -27 2 -38 4 -22 2 15 2 37 0 50 -2 12 -4 0 -4 -28z"/>
<path d="M7042 3080 c0 -14 2 -19 5 -12 2 6 2 18 0 25 -3 6 -5 1 -5 -13z"/>
<path d="M7060 3015 c0 -5 5 -17 10 -25 5 -8 10 -10 10 -5 0 6 -5 17 -10 25
-5 8 -10 11 -10 5z"/>
<path d="M7097 2940 c9 -16 21 -30 25 -30 5 0 -1 14 -14 30 -12 17 -23 30 -25
30 -2 0 4 -13 14 -30z"/>
<path d="M3101 2927 c-13 -21 -12 -21 5 -5 10 10 16 20 13 22 -3 3 -11 -5 -18
-17z"/>
<path d="M3054 2868 l-29 -33 33 29 c30 28 37 36 29 36 -2 0 -16 -15 -33 -32z"/>
<path d="M7175 2850 c10 -11 20 -20 23 -20 3 0 -3 9 -13 20 -10 11 -20 20 -23
20 -3 0 3 -9 13 -20z"/>
<path d="M4910 2220 c8 -5 20 -10 25 -10 6 0 3 5 -5 10 -8 5 -19 10 -25 10 -5
0 -3 -5 5 -10z"/>
<path d="M4994 2215 c3 -10 -2 -12 -22 -9 -15 3 -23 2 -20 -2 13 -12 123 -34
168 -32 25 0 35 3 22 5 -12 2 -20 8 -17 13 8 13 -7 19 -51 21 -21 1 -43 5 -49
8 -20 11 -36 9 -31 -4z"/>
<path d="M5260 2210 c-9 -6 -10 -10 -3 -10 6 0 15 5 18 10 8 12 4 12 -15 0z"/>
<path d="M5188 2183 c7 -3 16 -2 19 1 4 3 -2 6 -13 5 -11 0 -14 -3 -6 -6z"/>
</g>
</svg>
